<svg xmlns="http://www.w3.org/2000/svg" viewBox="0 0 504.6 360"><style>.st1{fill:none;stroke:#160c0c;stroke-miterlimit:10}</style><path d="M350 186l-1-1v-1l-4-2-2 1-2 2c-1 2-4 4-6 4h-1l-4-1-4-3-1-2-2-3v-2l1-5h1l3-1c4 0 8-2 10-5 3-3 5-7 5-11s-1-7-3-9l-1-2v-1a66 66 0 002-42 71 71 0 00-6-24v-3l3-6 1-3v-1-3l-1-2c0-2-1-5-3-7l-2-3-3-4-1-1-7-6-6-4-7-2-3-1-2 1-4 1c-2 1-5 3-8 3h-2a72 72 0 00-29-4l-4 1h-2a85 85 0 00-31-1c-10 2-19 5-27 11l-5 1-5-1-2-1-4 1-3 2-6 4-7 8-3 5-2 4-2 4-1 3-1 4 1 3 1 1 2 3 2 4 1 3 1 2a75 75 0 00-1 25 87 87 0 005 19v8l-4 6c-1 5-1 9 2 13l6 4 6 3h2v7l-3 4-1 1-3 1-4-1a55 55 0 00-7-1l-3 1-2 4 1 4 4 4 6 4c2 2 5 3 8 3l1-1 4 1h3l2-1 3-1h1l4-1 6-4a30 30 0 008-7l2-4 2-3 1-4h1l8 3 8 2h2l-1 1-1 3 1 3h1l-1 6-2 4v1l-1 1-3 2a107 107 0 00-9 12l-2 3-3 3-1 3 1 2 4 5c1 1 3 3 5 3v1l2 1 2 2 2 1c2 0 2 1 3 2l4 2 3 1h1v4l-1 3-2 3h-3l-2 1-2 4 1 4-1 2-2 3a177 177 0 00-4 9l-1 4v2 3l4 4 1 2a46 46 0 0014 9l4 1h6l3 1 7 3 5 1 5-1 2-3a14 14 0 001-9v-2l-2-3-1-5v-2l1-3 2-9v-1l-2-3-2-2-1-1-2-1v-1l3-5v-3l1-7v-2l4-2h1l4-2 2-2a26 26 0 007-6l2-3 1-2 3-4-1-2v-1l-2-3-4-5-4-5-1-1 1-1 2-3c0-2-1-3-3-3l-4-1-2-3h1l1-2v-4l-1-2v-4h3l10-2h1l1 2 2 2 3 4a291 291 0 0013 10l2 1a280 280 0 009 2h8l7-1 2-1c3 0 4-2 6-3l2-2 2-2 3-6v-2zm-12-92zm-86 165h-4l1-1v-1l2-9c-1 0 0 0 0 0h1l2 1c0 4 0 7-2 10z" fill="#7d7d7d" id="レイヤー_1"/><g id="レイヤー_1のコピー"><path class="st1" d="M339 145l1 2c2 2 3 5 3 9s-2 8-5 11c-2 3-6 5-10 5l-3 1h-1v1l-1 4v2l2 3 1 2 4 3 4 1h1l6-3 2-3 2-1 4 2v1l1 1v2l-3 6-2 2-2 2c-2 1-3 3-5 3l-3 1-7 1h-7l-4-1h-2l-4-1-2-1-6-3a291 291 0 01-10-10l-2-3-1-2h-1l-10 2h-2-1v4l1 3v3l-1 2h-1l2 3 4 1c2 0 3 2 3 3l-1 3-2 1 1 1 4 5h1l3 5 2 3v1l1 2-3 4-1 2-2 3-1 1-6 5-2 2-4 2h-1l-4 2v2l-1 7v3l-3 5v1l2 1 1 1 2 2 2 3v1l-2 9-1 3v2l1 5 2 3v2l1 2-2 7-2 3-5 1-5-1-7-3-3-1h-6l-4-1-2-1a46 46 0 01-13-10l-4-4v-3-2l1-4 1-3 3-6 2-3 1-2-1-4 2-4 2-1h3l2-3 1-3v-1l1-3h-2l-3-1-4-2-2-2a23 23 0 01-5-3l-2-1-5-4-4-5v-2-3l3-3 2-3 5-7a107 107 0 018-8v-1l2-4 1-6h-1l-1-3 1-3 1-1h-2l-8-2-7-3h-2l-1 4-2 4-2 3h-1l-7 7-6 4-4 1-1 1h-3l-2 1h-7-1c-3 0-6-1-8-3l-6-4-4-4v-4l1-4 3-1h3l4 1 4 1 3-1 1-1 3-4v-2l1-4v-1h-3l-6-3-6-4c-3-4-3-8-2-13l4-6v-3-5l-1-2a87 87 0 01-3-42l-1-2-1-3-2-4-2-3-1-1-1-3 1-4 1-3 2-4 2-4 3-5 7-8 6-4 3-2h6l5 1 5-1a73 73 0 0146-12l12 2h6a63 63 0 0129 3h2c3 0 6-2 8-3l4-1 2-1 3 1c3 0 5 1 8 3l6 3a26 26 0 017 7l3 4 2 3c2 2 3 5 3 7l1 2v4l-1 3-3 6v3a64 64 0 016 24v2a67 67 0 01-2 41zm-1-51v-1a74 74 0 00-77-57h-1 2c10 3 19 8 27 14l5 6 2 3 2 1c5 1 9 2 12 5 12 6 21 15 27 28l1 1zm-43-8l1-2a188 188 0 000-10l-4-7-7-8-3-1-8-2-4-1-5-1-5-1-4-1h-14-1l-6 2-2-1h-1l-4-1-5-1-1 1-6 1-5 3-3 2-8 6-4 6c-2 1-2 4-3 6v4l1 5-1 3-2 3-2 4-5 10v1l-2 6-1 5-1 5a46 46 0 000 13v3 10l1 7 1 7v7l1 3-1 5v2l-3 5-2 2h-8l-5-1h-4v6l3 3 2 2 5 3 6 2h8l5-2h2l2-2 3-3v-1l2-3 2-7 1-7-1-6v-4-4l-2-11-1-4v-5-3l1-3 2-6v-2l6-10 2-3 5-7a51 51 0 018-8l4-4 5-4 1-1a314 314 0 0116-11l2-1 2-1h3l7-1h9l7 1 3 1 2 1a221 221 0 0111 4l2 2zm-1 6l-7 4-3 1-4 2-4 1a125 125 0 00-18 7l-6 2h-2l-8 2a227 227 0 00-7 2l-3 2-8 9-1 1-7 7-2 2-1 1h1l6-1 8-1 8 2 6 5 2 4 1 2a41 41 0 012 5l1 5v2l1 5v6l-4 4h-4-2l-6 1-6 1-8-1h-5v2a44 44 0 0012 4l26 4a161 161 0 0040-4l9-4 5-3 2-2h-1l-4 1-7 1-1 1h-2l-8-1-2-1v-1-3l-1-6 1-8 1-2 3-6 4-5 2-2 5-4 6-2 2-1 13 1h1v-1-3-3l-2-4c0-3-2-5-3-7l-2-4-2-3-1-2-3-3-4-5-3-2-2-2-4-2zm-127 38l1-1v-3l1-5 1-2 2-2 2-1 5-4 1-1 3-7 5-11 2-3 1-2 1-2v-4l-1-7 1-3 3-5 3-3 1-2 5-4 7-4 4-2 4-1c2-1 5-2 7-1h2l3 1h6l5-1 15 1h3l6 1 4 1h2l11 3 1 1 4 1h5l1 1v-1l-6-6a85 85 0 00-66-17 71 71 0 00-58 70 75 75 0 003 24v1zm128-42l-1-1a169 169 0 00-6-3l-6-2-4-1-6-1-7-1h-10l-1 1-6 2-6 3h-1l-3 2-6 6-2 1-4 4-2 2a227 227 0 00-9 9l-2 3-5 7-7 13-1 3-1 4v7l1 6 1 4v7l2 10v4a39 39 0 01-3 10l-3 8v1l6-4 4-5 4-9v-4l-1-9-1-11-1-3v-7-6l1-2c2 0 2-1 3-2l7-7 1-2 4-4 1-2 9-8 2-1 9-2 5-1 6-2 8-3 3-1 4-2 4-1 2-1 4-1 2-1 8-4 4-3zm0 2l2 1 6 5 2 2a64 64 0 0115 21l2 10v6l-2 4-1 3-1 3-3 10-3 10v1l2 2v2h-1l-2 1h-1l-3 4-2 1-6 3-6 2h-1l1 2 1 2 4 5a391 391 0 0010 8l7 2 3 1h11l3-1 9-3 1-1 1-1 4-4v-1l1-4-2-2h-1l-2 2-6 4-4 1h-2l-2-1a659 659 0 01-6-6l-2-3v-3l1-7 1-7 4-11 1-3 1-4a160 160 0 003-8v-3l-1-14a103 103 0 00-5-15l-4-8c-1-4-4-6-8-7h-3l-7-1-3-1-4-1-2 2zm30 76l1-2v-1l2-3 2-2a62 62 0 0012-37 64 64 0 00-8-31 58 58 0 00-45-30h-1l1 1 3 2 5 8c1 3 2 5 1 7v8 1h3l11 2 3 1c4 1 7 3 9 7l4 8 1 4 3 10c2 5 2 10 2 14v4l-1 1v2l-1 3-1 4-1 1-2 5v2l-2 4-1 4v3zm-78 67l-3-2c-2-1-2-4-2-6l2-6 1-7 1-9v-3-2-1-2l1-1 1-1-5-2h-9l-2 7-1 2v1l2 1 1 1-1 1-1-1h-2l-1 1-2 1-5 7h-1l-3 4-3 4-2 2-1 2 1 2 3 5 4 3h1l2 2 2 1 2 1 4 2 2 2 4 1 6 2h3v-2-4-2l1-4zm21 71l2-1 1-6-1-1v-3l-3-6v-3-1-2c2-2 2-5 3-8l-1-4-2-3-3-1-6-3h-1l-6-1c-2 0-3 1-3 3l-1 5-1 3-3 6v1l-1 3-2 4 1 1 1 1 2 1 2 1 4 3 3 3 5 3 2 1 2 1 6 3zm-20-104v3l-1 4v4l-1 9-2 5c-1 2 0 4 2 5l4 3 8 2h5l3-1 1-2 1-1 1-7-1-5-2-5-2-5a52 52 0 00-3-11v-1l-7-4h-1l-4 2-1 1v4zm21 2h1l4 2v1l-1 4-3 1-4-1s0-1 0 0l1 3c2 4 3 7 3 11v9l-1 1-2 2v3l-1 1v4h2l4-1 3-1 6-4 2-3 2-2 2-2 2-3 2-4-1-2-1-1-1-3-1-1-5-5-2-3-3-1-1-2-2-2-2-5-4-6v-1l-1 2 2 9zm64-128l1-2 3-4v-4l-1-5-2-5-3-3-3-5h-1l-5-5-8-5-4-1-4-1-2 1-7 2-3 2c3 1 5 1 7 3a100 100 0 0116 11 76 76 0 0113 15l3 6zm-86 186l-5-1-2-1-7-2-2 1-1 1-1 2v7l-2 3a225 225 0 00-5 8v5 1l4 1 1 1 5 3 2 2 4 1 1 1-1-2v-2-3h1l2-7v-2l4-6v-1l1-5 1-5zM164 90l1-2a74 74 0 0126-41l1-1h-4l-4-1h-2l-3 2c-3 1-4 3-6 5l-6 7-3 5-2 4-2 4-1 3-1 3v2c2 1 3 3 3 5l1 1 2 4zm15 68l1-2-1-7-1-13v-3-3l1-11 1-4v-1l-2 1-4 3-2 1-2 3v3a1751 1751 0 00-1 12l1 3v1l1 6 2 6v1l5 3 1 1zm59-16v13l-1 9-1 7v1l3-1h5l1-1h1v-1l1-5-1-3v-6l-2-6-1-2v-1l-5-4zm79-1h-6l-3-1-2 2v10l-2 11-1 7 5-2 1-2 2-5 1-4 3-8v-1l2-7zm-85 46v1l1 1h1a36 36 0 0113 3h4c3-1 5 0 7 1l3 3h3l2-6v-1l-3-3-2-1h-2a146 146 0 01-24-1c-1 0-2 0-3 2v1zm3-46l-3-1h-6l-3 1-1 1v1l1 7c1 3 3 5 6 6h7v-1-11l-1-3zm-66 6l-1 1-2 4-1 6c1 3 2 6 5 8s6 4 10 4h1l-2-10-1-1-4-3-1-1-2-1-2-6v-1zm155 24h2c4 0 8-2 11-5 5-5 5-12 2-18l-1-1v1l-1 1-6 10-4 7-2 4-1 1zm-91 0l3-11v-3h-6l-2 1c-1 1-3 2-3 4l-3 9 2 1h7l2-1zm21 88l9 3 2-4 2-6v-7l-3 1c-1 2-2 3-4 3l-2 1h-2l-2 9zm41-114l1 7 2 3 4 2 2-1v-2l1-8v-1-2-2l-1-1-7 1-2 2v2zm-82 27h7l1-1v-1-3l-1-5-4-4h-4l-1 1v2l1 7 1 4zm-3-27v1l1 7v2l1 1h3c3-1 4-2 5-4l1-6v-4h-4l-4 2-3 1zm57 161l-1-1a97 97 0 00-6-3l-3-1-4-2-4-4c-1-2-2-3-4-3l-2-2-2-1-1 1v1l1 3 1 1c1 1 2 3 4 3l2 2 2 1 3 1 7 4h7zm-19-68v5l1 2 2 1 4 2h2l3-1c3-1 5-4 4-7h-8l-3-1-4-1h-1zm37-68l1 1 6 1 1-1v-1-5l-1-4c-1-2-4-4-6-3l-2 1v6l1 5zm-39 88c2-3 3-7 2-10l-4-1-5-1v4l-2 4v1l9 3zm1 44l-1-2c-2 0-4-2-5-3l-2-2-2-1-4-2-3-1-3-3-4-2-1 1 3 3 1 1 10 8 4 1 4 1 3 1zm48-131h4l3-2 1-7v-3l-1-1c-2 0-4 1-5 3l-2 5v5zm-73-5l1-4 4-5h1l-3-2-2-3-1-3-1 3-4 4-1 1h1l1 1c2 1 3 2 3 4l1 4zm72 0l1-3c0-2 1-4 4-5v-1c-2 0-2-2-3-3l-1-1-1-3v-1 1l-1 3-2 2-2 2 3 3 1 2 1 2v2zm-27 19v3l1 1 4 5 1 1 2-1v-2-2l-1-5h-7zm26-42l-1 1-3 4-3 4-1 3v1h1l3-1 1-1 3-4v-4-3zm-45 91l1 2 3 1 4 1 4 1 5-2v-1h-3l-8-1-6-1zm4 25c2-3 2-6 2-10l-2-1h-1-1c1 3 0 6-1 9v1l-1 1h4zm18-50l1-1 1-2-1-2h-3l-1 3 1 1 2 1zm9-4h1l2-1v-2l-2-1h-1l-2 1c0 2 1 3 2 3zm-15-6l1 6 1-1 1-1v-1-1l-1-4v-1l-2 3zm11 2l1-1-2-2 1 3zm-10-15v-1 1z"/><path class="st1" d="M242 119l7 1 4 2 1 1 1 6-3 2h-3l-5-2-3-2-5-3v-4h2l4-1zm0 1l-4 1v2l3 2 4 2 5 2h2l1-1v-4l-5-3-4-1h-2zM299 120a21 21 0 018 2l1 1-2 3-10 4-4 1-2-1-1-4v-2l2-2 1-1 2-1h5zm0 1h-4l-4 2-1 1v3c1 2 4 3 6 2h1l8-3 1-2-1-2h-2l-4-1zM272 179h-1v-1h2v1h-1zM239 205v1l-2-1v-1h2v1z"/></g></svg>