<svg xmlns="http://www.w3.org/2000/svg" viewBox="0 0 216.9 303.5"><path d="M194 154l-1-1v-1l-4-2-2 1-2 2c-2 2-4 3-7 3v1c-2 0-3 0-5-2l-3-2-2-2-1-3v-3l1-4 1-1h3c4-1 7-2 10-5 3-4 5-7 5-12a17 17 0 00-4-10v-2a68 68 0 002-42 70 70 0 00-6-24v-2l3-6 1-3v-2-2l-1-2-3-7-2-4-3-4-1-1-7-5-6-4-7-2-3-1h-2l-4 2-8 3h-2a71 71 0 00-29-4l-5 1h-2a80 80 0 00-58 9c-1 1-3 2-5 1h-4l-3-1-4 1-3 2-5 4-7 8-3 5-2 4-2 4-1 3-1 4 1 3 1 1 1 3 2 4 2 2v2l-1 8 1 18a89 89 0 004 19l1 5-1 3-3 6c-2 5-1 9 2 13 1 2 3 3 6 4l6 3h2v7l-3 4-1 1-3 1-5-1a35 35 0 00-6-1l-3 1-2 4 1 4 4 4 5 4c3 2 6 3 9 2l1 1h4l3-1h2l3-1h1l4-2 6-3 7-7h1l2-4 2-4 1-3h1l8 3 8 2h1v1l-1 3 1 3h1l-1 6-2 4v1l-1 1-3 2-4 5-5 7-2 3-3 3-1 3 1 2 4 5 5 4 2 1 2 2 2 1c2 0 2 1 3 2l4 2 3 1 1 1v3l-1 3-2 3h-3l-2 1-2 4v6l-2 3-3 6-1 3-1 4-1 2 1 3 3 4 2 2c4 3 7 6 12 8l2 1 4 1h6l3 1 7 3 5 1 4-1 3-3c1-1 2-5 1-7v-2-2l-2-3-1-5v-2l1-2 2-10v-1l-2-2-2-3-1-1-2-1v-1c2-1 2-3 3-5v-3l1-7v-1-1l4-2h1l4-2 2-2a24 24 0 007-6l2-3 1-1 3-5-1-2v-1l-2-2v-1l-4-5-4-5-1-1h1l2-4c0-1-1-3-3-3l-4-1-2-3h1l1-2v-4l-1-2v-4h3l10-2h1l1 2 2 3 3 3 7 7 6 3 2 1 4 1 2 1h11l7-1 2-1 6-3 2-2 2-2 3-6v-2zm-12-92h-1 1zM96 227c-2 0-3 1-4-1l1-1 1-9h1l2 1c1 3 0 7-1 10z" fill="#7d7d7d"/><path d="M183 113c10 12-1 28-15 28-3 7 2 16 10 15 5 1 7-5 11-6 9 2 2 13-3 16-17 12-44 2-52-16l-15 2c0 4 4 9 0 12l2 3c5-1 10 5 4 8 4 5 10 10 11 16-4 10-13 18-23 21 0 7-1 13-4 18 11 7 5 13 3 23 2 6 7 13 3 19-6 9-16 1-22-2-11 4-23-7-29-15-2-6 2-13 5-18 1-2 3-3 2-5-1-4 1-11 7-10 3-2 4-5 3-9-5-1-8-4-13-7s-10-6-13-11c-3-4 8-14 10-18l8-9c1-3 3-6 3-10-2-2-2-5 0-7l-19-5c-5 15-20 26-37 24-8 1-28-14-14-19 11 2 19 3 18-11-17-4-21-15-12-29-2-14-8-27-6-42 0-3 2-6 1-9L1 49l-1-3c2-12 15-34 28-35 4 1 9 3 12 0a74 74 0 0159-9c11-2 23-1 35 3 6 1 12-6 19-4 14 3 28 17 30 32 0 5-6 8-4 13 7 21 12 46 4 67zm-1-51c-6-35-42-63-78-58 13 4 29 10 36 23 19 4 33 18 42 35zm-43-8c5-11-4-23-13-28-15-5-32-9-47-5-7 0-12-4-19 0-12 6-27 17-23 32 1 2-1 4-3 6-4 8-8 17-9 26-2 13-2 26 0 38 1 14 5 38-17 30-4-2-6 3-5 6 8 13 33 15 38-1 8-18-3-36 0-54 8-24 28-44 50-56 15-7 34-3 48 6zm-1 6c-10 6-22 8-32 13-9 4-19 4-28 7l-21 23c28-7 36 9 35 34-1 6-29 5-35 5-2 3 10 5 12 6 20 5 69 7 82-10-5 3-26 7-25-2-4-21 17-42 38-35 0-16-13-33-26-41zM11 98c0-10 3-13 12-18l8-19c1-3 5-5 5-8-2-8 0-17 7-23 9-8 21-16 34-11 12-1 26-1 39 2 7 1 14 6 22 5C83-31-12 19 11 98zm127-42c-13-8-32-13-46-6-21 11-40 30-49 53-2 8 1 16 2 24 1 13 2 25-5 37 9-4 15-13 15-23l-4-36c10-7 17-18 27-26 13-3 25-7 37-12 8-3 18-4 23-11zm1 2c14 9 24 23 27 39 1 5-2 9-4 13l-3 12c-1 4-4 8-3 12 4 3 2 5-2 4-3 7-12 9-18 11 6 15 25 23 40 19 7-2 19-8 14-16h-1c-7 10-20 7-24-3-2-11 4-21 7-31 7-17 3-36-6-52-5-10-17-8-26-10l-1 2zm30 76c8-14 17-29 16-46 1-29-23-59-53-60 8 6 12 16 9 27 9 2 22 0 26 10 7 11 11 23 11 36-1 12-8 22-9 33zm-78 67c-10-4-2-14-2-21-1-5 2-9 1-14-2-2 1-4 1-5-4-2-8-3-13-2l-3 9c-1 1 1 2 2 2v1l-3-1-1 2-8 8c-3 2-4 6-6 8-2 1-4 4-3 6 4 6 9 9 15 12 6 4 12 7 19 7-1-4 0-8 1-12zm21 71c6-7-1-14-2-21 8-15-1-21-15-22-4 0-4 5-4 8-2 6-6 11-7 17 1 3 8 4 10 7 4 6 12 7 18 11zM92 168l-3 20c-1 3-3 7 0 10 6 4 16 9 22 2 3-5 1-13-2-18-2-5-1-11-4-16-2-3-5-5-8-5-4 0-6 4-5 7zm21 2c9 0 4 13-4 6 3 8 10 20 1 27 0 1 1 3-1 4v4c12-1 21-10 25-20-3-7-9-13-15-18-3-4-3-11-8-14l2 11zm64-128c3-5 6-9 3-15-6-12-17-24-30-25l-12 4c17 7 30 20 39 36zM91 228c-5-1-16-8-18-1v8c-4 5-8 10-8 17 7 0 10 7 17 9l-1-4 4-12 4-7c0-4 0-7 2-10zM8 58c4-18 14-33 27-44l-10-1c-7 4-13 11-17 19-7 13-8 12 0 26zm15 67c0-14-2-29 1-43-12 4-11 11-11 21 1 9 1 19 10 22zm58-15c1 10 0 20-2 29h9l2-2c0-9 1-23-9-27zm79-1c-2 0-9-3-10 0 0 10-3 20-3 29 10-3 10-20 13-29zm-84 46c0 3 5 1 7 2l9 3c4-1 7-1 10 1 2 1 4 5 6 3 9-16-16-9-24-12-3 0-8-2-8 3zm3-46c-4-1-11-3-13 1 0 5 1 13 7 14l7-1-1-14zm-66 6c-10 9 0 24 11 23l-1-10c-5-3-10-7-10-13zm155 24c12 1 22-14 14-24-4 8-10 15-14 24zm-91 0c1 0 3-8 2-14-8-3-13 6-13 14 0 2 10 1 11 0zm21 88l9 3c3-5 5-12 4-17-4 0-4 5-12 5l-1 9zm41-114c0 5 1 11 7 11 4 0 2-7 3-10-1-2 1-6-1-6-4 1-10 0-9 5zm-83 27c11 2 10-2 8-10-1-4-5-5-9-4-2 2 1 10 1 14zm-2-27c0 2-1 10 2 11 7 1 10-8 8-14-3 0-7 1-10 3zm57 161c-4-4-10-5-14-7-4-3-6-7-10-9-6-3-3 3-2 5 5 4 20 13 26 11zm-19-68c-5 11 17 15 16 2-6 2-11-1-16-2zm37-68c1 1 6 2 7 1 1-3 1-7-1-10-1-3-3-4-6-3-3 0 0 9 0 12zm-39 88c2-3 3-8 2-11l-9-1-3 9 10 3zm1 43l-10-7c-4-2-8-3-10-6-16-9 11 16 20 13zm47-130c8 2 8-6 9-12l-1-1c-7 0-7 8-8 13zm-72-5c1-4 2-8 5-9-3-2-5-4-6-8-1 3-2 6-5 8 4 1 5 5 6 9zm72 0c0-4 1-7 5-9-3-1-4-5-5-8-2 3-2 6-5 7 3 2 4 6 5 10zm-27 19c-1 4 3 6 5 9 0 1 2 2 3 0 1-3-2-6-2-9h-6zm26-42c-4 3-8 8-8 13 6 1 9-8 8-13zm-45 91c-1 3 5 3 7 4 4 2 7 1 10-1v-1c-6 1-12-1-17-2zm4 25c1-3 2-7 1-10l-3-1c2 6-6 13 2 11zm18-51c4 0 1-6-2-4-2 2-1 4 2 4zm9-3c4 0 3-5 0-4-3-1-3 5 0 4zm-15-6l1 6 2-3-2-6-1 3zm11 2c1-1 0-2-1-3l1 3zm-10-15v-1 1z"/><path d="M85 87c6 0 15 2 14 10l-3 2c-6 1-27-12-11-12zm0 1c-8 1 0 6 4 7 3 2 11 4 7-3-2-3-7-3-11-4zM143 88c16 1 6 8-3 10-4 2-6 0-7-4-1-5 6-7 10-6zm0 1c-10-1-13 8-4 8 8-1 17-7 4-8zM115 147c-2 0 0-2 1-2 2 1 1 2-1 2zM83 173h-2c-1-2 2-2 2 0z"/></svg>